<svg width="500" height="302" viewBox="0 0 500 302" fill="none" xmlns="http://www.w3.org/2000/svg">
<path d="M425.653 60.8535C425.642 60.6023 425.631 60.3511 425.62 60.1108C424.626 39.3484 416.894 24.1234 403.93 14.2064C403.624 13.9771 403.318 13.7477 403.012 13.5402C390.747 4.55157 373.993 0.161011 353.962 0.161011H234.554L231.431 3.28465V219.842L234.554 222.966H263.89L267.014 219.842V132.468L270.127 129.344H353.962C372.289 129.344 388.585 125.15 401.014 116.576C401.592 116.183 402.149 115.79 402.706 115.375C414.491 106.616 422.475 93.6953 424.932 76.4389C425.02 75.8272 425.096 75.2047 425.173 74.5712C425.249 73.9487 425.314 73.3152 425.369 72.6818C425.413 72.234 425.456 71.7862 425.478 71.3384C425.653 69.1977 425.73 67.0024 425.73 64.7525C425.73 63.431 425.708 62.1313 425.653 60.8535ZM270.127 96.8954L267.014 93.7718V35.7333L270.138 32.6097H351.778C379.76 32.6097 390.157 41.3253 390.157 64.7525C390.157 88.1798 379.76 96.8954 351.778 96.8954H270.127Z" fill="#FF0000"/>
<path d="M498.429 219.842L495.305 222.966H465.969L462.846 219.842V3.28465L465.98 0.161011H495.316L498.44 3.28465V219.842H498.429Z" fill="#FF0000"/>
<path d="M171.778 222.966L165.848 219.678L109.742 132.402L103.648 129.355H38.6959L35.5723 132.479V219.853L32.4596 222.977H3.12364L0 219.853V3.28465L3.12364 0.161011H120.347C168.731 0.161011 194.299 22.4961 194.299 64.7525C194.299 96.8954 178.571 117.832 148.766 125.467V128.558L191.175 195.181V219.656L187.866 222.966H171.778ZM120.347 96.8954C148.329 96.8954 158.727 88.1798 158.727 64.7525C158.727 41.3253 148.329 32.6097 120.347 32.6097H38.7069L35.5723 35.7333V93.7718L38.6959 96.8954H120.347Z" fill="#FF0000"/>
<path d="M496.876 264.977L500 268.1V297.853L496.876 300.976H3.12364L0 297.853V268.1L3.12364 264.977H496.887H496.876Z" fill="#FF0000"/>
</svg>
