<svg width="251" height="113" viewBox="0 0 251 113" fill="none" xmlns="http://www.w3.org/2000/svg">
<path d="M213.54 31.2565C213.535 31.1305 213.529 31.0045 213.524 30.884C213.025 20.4703 209.147 12.834 202.644 7.85995C202.491 7.74491 202.338 7.62987 202.184 7.52579C196.032 3.0174 187.629 0.815247 177.583 0.815247H117.692L116.125 2.38195V111L117.692 112.566H132.406L133.972 111V67.1757L135.533 65.609H177.583C186.775 65.609 194.948 63.5054 201.182 59.2052C201.472 59.008 201.751 58.8108 202.031 58.6026C207.942 54.2093 211.946 47.7288 213.179 39.0736C213.222 38.7668 213.261 38.4545 213.299 38.1368C213.337 37.8246 213.37 37.5069 213.398 37.1891C213.42 36.9645 213.441 36.7399 213.452 36.5153C213.54 35.4416 213.578 34.3406 213.578 33.2121C213.578 32.5493 213.567 31.8974 213.54 31.2565ZM135.533 49.3338L133.972 47.7671V18.6571L135.539 17.0904H176.487C190.522 17.0904 195.737 21.4618 195.737 33.2121C195.737 44.9624 190.522 49.3338 176.487 49.3338H135.533Z" fill="black"/>
<path d="M250.042 111L248.475 112.566H233.761L232.195 111V2.38195L233.767 0.815247H248.481L250.047 2.38195V111H250.042Z" fill="black"/>
<path d="M86.2053 112.566L83.2307 110.917L55.0903 67.1428L52.0335 65.6144H19.4559L17.8892 67.1812V111.005L16.328 112.572H1.61407L0.0473633 111.005V2.38195L1.61407 0.815247H60.4094C84.6769 0.815247 97.5009 12.0177 97.5009 33.2121C97.5009 49.3338 89.6126 59.8352 74.6631 63.6643V65.2145L95.9342 98.6303V110.906L94.2743 112.566H86.2053ZM60.4094 49.3338C74.444 49.3338 79.6591 44.9624 79.6591 33.2121C79.6591 21.4618 74.444 17.0904 60.4094 17.0904H19.4614L17.8892 18.6571V47.7671L19.4559 49.3338H60.4094Z" fill="black"/>
</svg>
