<svg width="501" height="224" viewBox="0 0 501 224" fill="none" xmlns="http://www.w3.org/2000/svg">
<path d="M427.409 60.9629C427.398 60.7109 427.387 60.4589 427.376 60.2179C426.379 39.3906 418.622 24.1179 405.617 14.1699C405.31 13.9398 405.004 13.7097 404.697 13.5016C392.393 4.48481 375.587 0.0805054 355.494 0.0805054H235.712L232.578 3.21392V220.449L235.712 223.583H265.14L268.273 220.449V132.801L271.395 129.668H355.494C373.878 129.668 390.224 125.461 402.692 116.86C403.273 116.466 403.831 116.072 404.39 115.655C416.212 106.868 424.22 93.9075 426.686 76.5971C426.773 75.9836 426.85 75.3591 426.927 74.7236C427.003 74.0991 427.069 73.4637 427.124 72.8282C427.168 72.379 427.211 71.9298 427.233 71.4806C427.409 69.3333 427.485 67.1311 427.485 64.8742C427.485 63.5485 427.463 62.2448 427.409 60.9629ZM271.395 97.1177L268.273 93.9842V35.7641L271.406 32.6307H353.302C381.372 32.6307 391.802 41.3736 391.802 64.8742C391.802 88.3748 381.372 97.1177 353.302 97.1177H271.395Z" fill="black"/>
<path d="M500.412 220.449L497.279 223.583H467.851L464.718 220.449V3.21392L467.862 0.0805054H497.29L500.423 3.21392V220.449H500.412Z" fill="black"/>
<path d="M172.739 223.583L166.79 220.285L110.509 132.736L104.396 129.679H39.2404L36.107 132.812V220.46L32.9845 223.594H3.55675L0.42334 220.46V3.21392L3.55675 0.0805054H121.147C169.682 0.0805054 195.33 22.4855 195.33 64.8742C195.33 97.1177 179.554 118.12 149.655 125.779V128.879L192.197 195.711V220.263L188.877 223.583H172.739ZM121.147 97.1177C149.217 97.1177 159.647 88.3748 159.647 64.8742C159.647 41.3736 149.217 32.6307 121.147 32.6307H39.2514L36.107 35.7641V93.9842L39.2404 97.1177H121.147Z" fill="black"/>
</svg>
