<?xml version="1.0" encoding="UTF-8"?>
<svg id="Layer_1" xmlns="http://www.w3.org/2000/svg" version="1.1" viewBox="0 0 262 262">
  <!-- Generator: Adobe Illustrator 29.0.1, SVG Export Plug-In . SVG Version: 2.1.0 Build 192)  -->
  <path d="M261.5,261.4H.9v-29s0-57.9,0-57.9v-29h0v-29h0V.8h2.6v29h1.6v29h2.6v29h4.1v29h6.7v29h11.2v29h9.7v29h35.7v-29h-16.1v-29h2.8v-29h-3.1v-29h2.8v-29h-.1v-29h.6V.8h2.6v29h.9v29h2.7v29h1.3v29h8.4v-29h-4.3v-29h2.9v-29h-.4V.8h2.6v29h1.9v29h-.3v29h5.4v-29h-1.7v-29h1.5V.8h2.6v29h.1v29h3.4v-29h-1.4V.8h2.6v29h2.1V.8h2.6v29h-1.7v29h-3.3v29h-3.6v29h-9.4v29h8.4v29h25.8v29h-25.6v29h86.9v-29h-25.6v-29h25.7v-29h8.5v-29h-9.4v-29h-3.6v-29h-3.3v-29h-1.7V.8h2.6v29h2.1V.8h2.6v29h-1.4v29h3.4v-29h.1V.8h2.6v29h1.5v29h-1.7v29h5.4v-29h-.3v-29h1.9V.8h2.6v29h-.4v29h2.9v29h-4.3v29h8.4v-29h1.3v-29h2.7v-29h.9V.8h2.6v29h.6v29h-.1v29h2.8v29h-3.1v29h2.7v29h-16v29h35.7v-29h9.5v-29h11.3v-29h6.7v-29h4.1v-29h2.6v-29h1.6V.8h2.6v115.8h0v29h-.1v29h.2v29h0v29h0v29ZM106.7,29.8h2.1V.8h2.6v29h-.7v29h3.4v-29h-.5V.8h2.6v29h2.1v29h-1.8v29h5.4v-29h-.2v-29h1.3V.8h2.6v29h.3v29h2.8v29h-1.5v29h8.4v-29h-1.5v-29h2.8v-29h.3V.8h2.6v29h1.3v29h-.2v29h5.4v-29h-1.8v-29h2.1V.8h2.6v29h-.5v29h3.4v-29h-.7V.8h2.6v29h2.1V.8h2.6v29h-2.4v29h-3.2v29h-6.5v29h-6.3v29h5.5v29h-28.7v-29h5.7v-29h-6.3v-29h-6.5v-29h-3.2v-29h-2.4V.8h2.6v29ZM41,29.8h1.8v29h1.1v29h5.4v-29h-3.1v-29h1.7V.8h2.6v29h0v29h3.4v-29h-1.2V.8h2.6v29h2.1V.8h2.6v29h-1.9v29h-1.9v29h-5.8v29h-1.4v29h-17.5v-29h8v-29h-2.2v-29h1.4v-29h-.2V.8h2.6v29ZM102,29.8h1.1v29h1.2v29h3.5v29h1.8v29h-17.5v-29h4.9v-29h.7v-29h1.3v-29h.5V.8h2.6v29ZM163,29.8h.5v29h1.3v29h.7v29h4.9v29h-17.5v-29h1.8v-29h3.5v-29h1.2v-29h1.1V.8h2.6v29ZM205.2,29.8h2.1V.8h2.6v29h-1.2v29h3.4v-29h0V.8h2.6v29h1.7v29h-3.1v29h5.4v-29h1.1v-29h1.8V.8h2.6v29h-.2v29h1.4v29h-2.2v29h8v29h-17.5v-29h-1.3v-29h-5.8v-29h-1.9v-29h-1.9V.8h2.6v29ZM26.9,29.8h.7v29h3.4v-29h-2V.8h2.6v29h2.1V.8h2.6v29h-1.1v29h-3.4v29h-.8v29h-10.8v-29h5v-29h-1.6v-29h.8V.8h2.6v29ZM228.6,29.8h2.1V.8h2.6v29h-2v29h3.4v-29h.7V.8h2.6v29h.8v29h-1.6v29h5v29h-10.8v-29h-.8v-29h-3.4v-29h-1.1V.8h2.6v29ZM17.6,29.8h2.1V.8h2.6v29h-2.1v29h-.4v29h-6.7v-29h3v-29h-1V.8h2.6v29ZM242.7,29.8h2.1V.8h2.6v29h-1v29h3v29h-6.7v-29h-.4v-29h-2.1V.8h2.6v29ZM12.9,29.8h-.3v29h-4.1v-29h1.8V.8h2.6v29ZM69.2,29.8h2.1V.8h2.6v29h-.9v29h-4.1v-29h-2.2V.8h2.6v29ZM130.1,29.8h2.1V.8h2.6v29h-1.6v29h-4.1v-29h-1.6V.8h2.6v29ZM191.1,29.8h2.1V.8h2.6v29h-2.2v29h-4.1v-29h-.9V.8h2.6v29ZM252.1,29.8h1.8v29h-4.1v-29h-.3V.8h2.6v29ZM8.2,29.8h-2.6V.8h2.6v29ZM45.7,29.8h-2.6V.8h2.6v29ZM83.2,29.8h-2.6V.8h2.6v29ZM120.8,29.8h-2.6V.8h2.6v29ZM144.2,29.8h-2.6V.8h2.6v29ZM181.7,29.8h-2.6V.8h2.6v29ZM219.2,29.8h-2.6V.8h2.6v29ZM256.8,29.8h-2.6V.8h2.6v29Z"/>
</svg>